:FULLY-SPECIFIED
:FORCE-ALL-JOINTS-BE-3DOF
:DEGREES
421
root 10.0923 16.7544 23.3715 8.16413 0.340079 -4.72743
lfemur -44.1295 2.46703 -18.6683
ltibia 34.4534 0 0
lfoot 1.12919 7.77966 0
ltoes 1.92085 0 0
rfemur 24.8603 3.02752 28.3196
rtibia 7.31528e-14 0 0
rfoot 9.41801 3.91051 0
rtoes -22.3075 0 0
lowerback -8.77415 2.76314 1.22441
upperback -1.79946 3.49013 2.17307
thorax 2.98216 1.74173 1.95036
lowerneck -19.4868 -6.95681 -14.6684
upperneck 21.9234 -9.00444 14.2777
head 11.7761 -3.65347 6.34443
lclavicle -6.32539e-15 -5.96354e-15 0
lhumerus -51.0294 -7.1516 92.5795
lradius 22.4522 0 0
lwrist 0.884618 0 0
lhand -7.18723 -22.5429 0
lfingers 7.12502 0 0
lthumb 18.6907 6.57915 0
rclavicle -6.32539e-15 -5.96354e-15 0
rhumerus -36.1808 10.0838 -88.6768
rradius 33.0314 0 0
rwrist -14.1029 0 0
rhand -29.0392 -24.6137 0
rfingers 7.12502 0 0
rthumb -2.3896 -54.58 0
422
root 10.1263 16.7844 23.5327 8.14036 0.343092 -4.29134
lfemur -43.722 2.35031 -19.2792
ltibia 34.9292 0 0
lfoot 0.687992 7.54956 0
ltoes 3.1574 0 0
rfemur 23.5788 2.56376 27.4931
rtibia 3.10841 0 0
rfoot 10.4286 4.12274 0
rtoes -21.8693 0 0
lowerback -8.65206 2.72206 0.929993
upperback -1.89021 3.47147 2.01955
thorax 2.81249 1.73203 1.94264
lowerneck -19.4886 -6.96657 -14.7243
upperneck 21.9609 -8.99252 14.2376
head 11.789 -3.65761 6.34209
lclavicle -1.18768e-14 -5.34418e-15 0
lhumerus -50.4435 -6.71142 92.0927
lradius 22.0158 0 0
lwrist 0.0953282 0 0
lhand -7.25415 -22.5872 0
lfingers 7.12502 0 0
lthumb 18.6264 6.54216 0
rclavicle -1.18768e-14 -5.34418e-15 0
rhumerus -36.7923 9.73993 -88.7514
rradius 32.5891 0 0
rwrist -13.952 0 0
rhand -28.6953 -25.3096 0
rfingers 7.12502 0 0
rthumb -2.05744 -55.2774 0
423
root 10.1603 16.8144 23.6938 8.09566 0.227224 -3.78274
lfemur -43.1048 2.2229 -19.9236
ltibia 35.1519 0 0
lfoot 0.0631878 7.48213 0
ltoes 3.96328 0 0
rfemur 21.626 2.05313 26.4718
rtibia 7.49574 0 0
rfoot 11.1906 4.63114 0
rtoes -20.7581 0 0
lowerback -8.51946 2.70024 0.567157
upperback -1.93735 3.48319 1.85706
thorax 2.67797 1.73678 1.96876
lowerneck -19.5545 -6.96207 -14.7385
upperneck 21.9878 -8.94781 14.146
head 11.7999 -3.64697 6.31713
lclavicle -1.94831e-14 -3.72537e-15 0
lhumerus -49.7221 -6.14502 91.5387
lradius 21.5473 0 0
lwrist -0.791275 0 0
lhand -7.18159 -22.5097 0
lfingers 7.12502 0 0
lthumb 18.6963 6.61414 0
rclavicle -1.94831e-14 -3.72537e-15 0
rhumerus -37.3672 9.39088 -88.7679
rradius 32.2051 0 0
rwrist -13.756 0 0
rhand -28.1578 -26.3254 0
rfingers 7.12502 0 0
rthumb -1.53834 -56.2958 0
424
root 10.1943 16.8444 23.855 8.03899 0.0286907 -3.23784
lfemur -42.3441 2.10763 -20.5805
ltibia 35.1866 0 0
lfoot -0.673323 7.51873 0
ltoes 4.44237 0 0
rfemur 19.2535 1.5304 25.3472
rtibia 12.6491 0 0
rfoot 11.7977 5.28427 0
rtoes -19.2463 0 0
lowerback -8.37619 2.69127 0.170704
upperback -1.97197 3.5136 1.69281
thorax 2.54831 1.75088 2.01425
lowerneck -19.6169 -6.93904 -14.7322
upperneck 22.0066 -8.87507 14.0275
head 11.7995 -3.62514 6.28262
lclavicle -2.77936e-14 -1.61513e-15 0
lhumerus -48.9474 -5.51358 90.9586
lradius 21.0776 0 0
lwrist -1.71223 0 0
lhand -7.05223 -22.3768 0
lfingers 7.12502 0 0
lthumb 18.8208 6.73596 0
rclavicle -2.77936e-14 -1.61513e-15 0
rhumerus -37.9421 9.06493 -88.7611
rradius 31.8668 0 0
rwrist -13.5463 0 0
rhand -27.5375 -27.4689 0
rfingers 7.12502 0 0
rthumb -0.93923 -57.4422 0
425
root 10.2282 16.8744 24.0161 7.97928 -0.216289 -2.69285
lfemur -41.506 2.02731 -21.2289
ltibia 35.0981 0 0
lfoot -1.44964 7.60075 0
ltoes 4.69859 0 0
rfemur 16.7131 1.03033 24.2106
rtibia 18.0554 0 0
rfoot 12.3434 5.9307 0
rtoes -17.6063 0 0
lowerback -8.2221 2.68876 -0.224562
upperback -2.02516 3.55099 1.53401
thorax 2.39317 1.76924 2.06466
lowerneck -19.6079 -6.89317 -14.7269
upperneck 22.0201 -8.77905 13.9071
head 11.7786 -3.5957 6.25163
lclavicle -3.54576e-14 4.78555e-16 0
lhumerus -48.2013 -4.87827 90.3935
lradius 20.6375 0 0
lwrist -2.60459 0 0
lhand -6.94879 -22.2549 0
lfingers 7.12502 0 0
lthumb 18.9203 6.84849 0
rclavicle -3.54576e-14 4.78555e-16 0
rhumerus -38.5536 8.79032 -88.7658
rradius 31.5617 0 0
rwrist -13.354 0 0
rhand -26.9451 -28.5476 0
rfingers 7.12502 0 0
rthumb -0.367028 -58.5238 0
426
root 10.2622 16.9044 24.1773 7.92547 -0.471499 -2.18399
lfemur -40.6565 2.00478 -21.8479
ltibia 34.9514 0 0
lfoot -2.19386 7.66957 0
ltoes 4.83583 0 0
rfemur 14.2562 0.587706 23.1537
rtibia 23.2019 0 0
rfoot 12.9213 6.419 0
rtoes -16.1108 0 0
lowerback -8.05702 2.68631 -0.583838
upperback -2.12802 3.58366 1.38786
thorax 2.18227 1.78677 2.10552
lowerneck -19.4599 -6.82019 -14.744
upperneck 22.0306 -8.6645 13.8094
head 11.7281 -3.56223 6.23724
lclavicle -4.11243e-14 2.04767e-15 0
lhumerus -47.5658 -4.30025 89.8845
lradius 20.2576 0 0
lwrist -3.40539 0 0
lhand -6.95398 -22.2103 0
lfingers 7.12502 0 0
lthumb 18.9153 6.89259 0
rclavicle -4.11243e-14 2.04767e-15 0
rhumerus -39.2383 8.59534 -88.817
rradius 31.277 0 0
rwrist -13.2104 0 0
rhand -26.4912 -29.3694 0
rfingers 7.12502 0 0
rthumb 0.0713344 -59.3478 0
427
root 10.2962 16.9344 24.3384 7.8865 -0.70072 -1.74747
lfemur -39.8618 2.06285 -22.4164
ltibia 34.8114 0 0
lfoot -2.83409 7.66656 0
ltoes 4.958 0 0
rfemur 12.1345 0.237285 22.2678
rtibia 27.5756 0 0
rfoot 13.6249 6.59772 0
rtoes -15.032 0 0
lowerback -7.88079 2.67751 -0.872319
upperback -2.31164 3.59992 1.26157
thorax 1.88527 1.79837 2.12238
lowerneck -19.105 -6.71579 -14.8047
upperneck 22.0409 -8.53618 13.7591
head 11.6388 -3.52834 6.25251
lclavicle -4.3443e-14 2.5842e-15 0
lhumerus -47.1228 -3.8407 89.4726
lradius 19.9687 0 0
lwrist -4.05167 0 0
lhand -7.1505 -22.3095 0
lfingers 7.12502 0 0
lthumb 18.7261 6.80914 0
rclavicle -4.3443e-14 2.5842e-15 0
rhumerus -40.0329 8.50823 -88.9495
rradius 31.0002 0 0
rwrist -13.1469 0 0
rhand -26.2866 -29.7417 0
rfingers 7.12502 0 0
rthumb 0.268929 -59.7213 0
428
root 10.3232 16.9658 24.4816 7.86133 -0.934263 -1.36633
lfemur -39.0891 2.23498 -22.9608
ltibia 34.6457 0 0
lfoot -3.38441 7.59713 0
ltoes 5.02295 0 0
rfemur 10.3424 -0.00523014 21.5222
rtibia 31.2101 0 0
rfoot 14.6128 6.5083 0
rtoes -14.3983 0 0
lowerback -7.69397 2.67195 -1.09812
upperback -2.61994 3.61207 1.14822
thorax 1.45664 1.81143 2.11164
lowerneck -18.3995 -6.55904 -14.9394
upperneck 22.0403 -8.38198 13.7786
head 11.4785 -3.49385 6.31398
lclavicle -4.18359e-14 1.66666e-15 0
lhumerus -46.9791 -3.48023 89.1503
lradius 19.7943 0 0
lwrist -4.54207 0 0
lhand -7.58739 -22.5991 0
lfingers 7.12502 0 0
lthumb 18.3056 6.55586 0
rclavicle -4.18359e-14 1.66666e-15 0
rhumerus -41.0365 8.56985 -89.2042
rradius 30.7229 0 0
rwrist -13.2098 0 0
rhand -26.3066 -29.6489 0
rfingers 7.12502 0 0
rthumb 0.249571 -59.6306 0
429
root 10.3502 16.9972 24.6247 7.84259 -1.20716 -1.00822
lfemur -38.2792 2.50961 -23.5031
ltibia 34.3958 0 0
lfoot -3.90515 7.50926 0
ltoes 4.93912 0 0
rfemur 8.6775 -0.164514 20.8375
rtibia 34.5225 0 0
rfoot 15.8418 6.28018 0
rtoes -13.9972 0 0
lowerback -7.4968 2.67665 -1.2907
upperback -3.03681 3.63193 1.04068
thorax 0.911517 1.83151 2.08416
lowerneck -17.3687 -6.34919 -15.137
upperneck 22.0246 -8.19567 13.8525
head 11.2481 -3.45588 6.41448
lclavicle -3.72681e-14 -3.82844e-16 0
lhumerus -47.0903 -3.16604 88.883
lradius 19.7144 0 0
lwrist -4.92668 0 0
lhand -8.20829 -23.0353 0
lfingers 7.12502 0 0
lthumb 17.7079 6.1716 0
rclavicle -3.72681e-14 -3.82844e-16 0
rhumerus -42.2398 8.76576 -89.5614
rradius 30.4535 0 0
rwrist -13.3834 0 0
rhand -26.4577 -29.2417 0
rfingers 7.12502 0 0
rthumb 0.103567 -59.2273 0
